<?xml version="1.0" encoding="UTF-8"?>
<svg version="1.1" xmlns="http://www.w3.org/2000/svg" width="512" height="512">
<path d="M0 0 C0.90202148 0.19867676 1.80404297 0.39735352 2.73339844 0.60205078 C31.82652569 7.17829949 59.09230287 19.04941812 83 37 C83.91652344 37.68578125 84.83304687 38.3715625 85.77734375 39.078125 C92.5290537 44.32589956 98.7956167 50.12516099 105 56 C105.93070312 56.8765625 106.86140625 57.753125 107.8203125 58.65625 C140.69462744 90.50031575 160.36017469 134.98250993 166 180 C166.13148438 180.99902344 166.26296875 181.99804688 166.3984375 183.02734375 C166.69468185 185.68953957 166.8736113 188.32417068 167 191 C167.03786621 191.67369629 167.07573242 192.34739258 167.11474609 193.04150391 C167.23248003 195.34004789 167.30844698 197.63694347 167.375 199.9375 C167.41326904 200.67242676 167.45153809 201.40735352 167.4909668 202.16455078 C167.54658972 205.78380465 167.43583295 207.54718492 164.88220215 210.20031738 C161.41730897 212.36383947 159.42416797 212.50647094 155.36132812 212.51757812 C154.71514023 212.5245874 154.06895233 212.53159668 153.40318298 212.53881836 C151.27876109 212.55634547 149.15568414 212.54479636 147.03125 212.53125 C145.54821519 212.53394648 144.0651821 212.53783021 142.58215332 212.54284668 C139.47858803 212.5487345 136.37548418 212.54020256 133.27197266 212.52148438 C129.30052204 212.49869444 125.33015273 212.51182149 121.35874176 212.53577423 C118.29770816 212.55025207 115.23692949 212.5456173 112.17588806 212.53526306 C110.71190766 212.53260122 109.24790386 212.53584644 107.78395081 212.54518127 C105.73490399 212.55538065 103.68759011 212.53980299 101.63867188 212.51757812 C100.47460815 212.51439575 99.31054443 212.51121338 98.11120605 212.50793457 C94.35573799 211.89481798 92.68134516 210.65152573 90 208 C89.31225586 205.81201172 89.31225586 205.81201172 89.21484375 203.4296875 C89.13520386 202.09901245 89.13520386 202.09901245 89.05395508 200.74145508 C89.0155249 199.7955249 88.97709473 198.84959473 88.9375 197.875 C86.96243134 168.53284107 76.66501601 142.68956106 58 120 C57.37480469 119.22140625 56.74960937 118.4428125 56.10546875 117.640625 C54.79397838 116.04513793 53.40670408 114.51220688 52 113 C51.34 113 50.68 113 50 113 C48.49269407 114.92639603 48.49269407 114.92639603 46.875 117.5625 C42.76969035 123.88123708 38.50257951 130.0727132 34.1875 136.25 C29.17717463 143.43345777 24.18077349 150.62520597 19.23217773 157.85131836 C16.51240129 161.81670883 13.7704631 165.76590233 11.015625 169.70703125 C9.95891602 171.22006836 9.95891602 171.22006836 8.88085938 172.76367188 C7.50391774 174.73379643 6.12513856 176.70263854 4.74414062 178.66992188 C-3.74779368 190.31597079 -3.74779368 190.31597079 -10 203.1875 C-13.08720959 211.42877984 -19.12862521 217.20408468 -27 221 C-35.27357858 224.32347428 -46.08744309 224.48117354 -54.5 221.4375 C-59.39187292 219.11509569 -63.22326662 215.83821509 -67 212 C-67.7425 211.2575 -68.485 210.515 -69.25 209.75 C-75.11045449 200.54071437 -76.5650488 190.7423275 -74.41015625 180.08203125 C-70.88639521 168.56891337 -62.71933564 162.01924911 -52.63671875 156.17578125 C-48.53560256 153.77811908 -44.67971245 151.06725099 -40.8125 148.3125 C-39.73899292 147.54873047 -39.73899292 147.54873047 -38.64379883 146.76953125 C-32.72301594 142.54049454 -26.83315188 138.26834541 -20.94262695 133.99731445 C-14.50875751 129.34230598 -8.00504304 124.79145266 -1.49023438 120.25073242 C6.42407168 114.72508255 14.24666437 109.07679616 22.05712891 103.40576172 C25.02795254 101.25622635 28.01347574 99.12765454 31 97 C21.01654249 86.41068623 3.5651356 81.84555948 -10 78 C-11.26585937 77.63777344 -12.53171875 77.27554688 -13.8359375 76.90234375 C-47.97885849 68.9405997 -83.46585129 77.48034385 -112.8125 95.4375 C-142.53006735 115.13093269 -162.11346006 144.58782634 -169.49487305 179.40258789 C-170.85897171 186.48065668 -171.43191316 193.50814012 -171.69140625 200.6953125 C-172.0136562 204.14624236 -172.56730535 206.84166356 -174 210 C-177.38894186 212.33968095 -180.50617337 212.25875973 -184.54101562 212.2746582 C-185.18866379 212.27976913 -185.83631195 212.28488007 -186.50358582 212.29014587 C-188.63790199 212.30401153 -190.77189423 212.3030877 -192.90625 212.30078125 C-194.39310831 212.30466937 -195.87996552 212.30900428 -197.36682129 212.31376648 C-200.48042403 212.3212218 -203.59391337 212.32094209 -206.70751953 212.31567383 C-210.69571899 212.30987481 -214.68345469 212.32682352 -218.67157745 212.3500185 C-221.74109608 212.36475473 -224.81050292 212.36562781 -227.88005066 212.36250877 C-229.35044779 212.36302187 -230.8208512 212.36825753 -232.29121399 212.37832069 C-234.34744382 212.39066857 -236.40276886 212.38390494 -238.45898438 212.37231445 C-240.21293518 212.37325859 -240.21293518 212.37325859 -242.00231934 212.3742218 C-245.30501491 211.96192282 -246.68741461 211.36260527 -249 209 C-257.2832831 174.63499472 -238.55535785 127.71605486 -221.34765625 98.7734375 C-191.38658896 49.95083617 -145.428252 15.43437829 -89.7265625 1.64941406 C-61.43683373 -5.08864813 -28.53766072 -6.46892391 0 0 Z " fill="#215811" transform="translate(315,273)"/>
<path d="M0 0 C5.35930832 4.17978552 10.882698 8.84445763 14.17578125 14.859375 C15.38906632 17.2396011 15.38906632 17.2396011 17.51953125 17.4453125 C18.22078125 17.36023438 18.92203125 17.27515625 19.64453125 17.1875 C29.06965627 16.69788312 37.53473624 19.90899321 44.64453125 26.0625 C48.82590304 30.56410814 51.49798725 35.33838267 53.64453125 41.0625 C54.45535156 41.08828125 55.26617187 41.1140625 56.1015625 41.140625 C69.5831463 41.83118343 80.95609435 45.80302663 90.39453125 55.75 C97.99222685 65.07524588 100.89297635 76.19752719 100.55859375 88.12890625 C99.31717675 98.48784143 94.36263692 109.68229298 86.453125 116.67578125 C77.05236321 123.88370876 67.32926666 127.16959932 55.42979431 127.20294189 C53.59028198 127.21150711 53.59028198 127.21150711 51.71360779 127.22024536 C50.36758433 127.2214905 49.02156076 127.22261564 47.67553711 127.22363281 C46.2474861 127.22826604 44.81943631 127.23329137 43.39138794 127.23867798 C39.52115953 127.25175871 35.65094844 127.2582389 31.7807014 127.26268864 C29.35736979 127.26562743 26.93404283 127.26973382 24.51071358 127.27419281 C16.91333252 127.28785871 9.31596219 127.2975288 1.7185697 127.3013947 C-7.02239665 127.30586804 -15.76320605 127.32338603 -24.5041247 127.3523953 C-31.27891829 127.37409091 -38.05366799 127.38410323 -44.82849592 127.38543582 C-48.86591512 127.38647857 -52.90318661 127.39227206 -56.94056892 127.41025543 C-60.7450626 127.42687222 -64.5492997 127.42882656 -68.35381699 127.42011642 C-70.39451228 127.41899278 -72.43519958 127.432606 -74.47584534 127.4468689 C-89.30210704 127.38060534 -101.47005446 124.56251753 -112.60546875 114.4375 C-121.23229115 105.32170791 -124.91674688 93.59576739 -124.66796875 81.28125 C-123.41230939 68.34795856 -117.66320358 58.15753859 -107.8515625 49.8515625 C-101.70850024 45.44855387 -94.65546127 42.84694262 -87.35546875 41.0625 C-87.15244141 39.79019531 -87.15244141 39.79019531 -86.9453125 38.4921875 C-84.09355168 22.95265248 -77.66918741 9.7166353 -64.46289062 0.44238281 C-44.99338052 -12.49138859 -19.59389779 -13.31122778 0 0 Z " fill="#52D381" transform="translate(183.35546875,24.9375)"/>
<path d="M0 0 C5.35930832 4.17978552 10.882698 8.84445763 14.17578125 14.859375 C15.38906632 17.2396011 15.38906632 17.2396011 17.51953125 17.4453125 C18.22078125 17.36023438 18.92203125 17.27515625 19.64453125 17.1875 C29.06965627 16.69788312 37.53473624 19.90899321 44.64453125 26.0625 C48.82590304 30.56410814 51.49798725 35.33838267 53.64453125 41.0625 C54.45535156 41.08828125 55.26617187 41.1140625 56.1015625 41.140625 C69.5831463 41.83118343 80.95609435 45.80302663 90.39453125 55.75 C97.99222685 65.07524588 100.89297635 76.19752719 100.55859375 88.12890625 C99.31717675 98.48784143 94.36263692 109.68229298 86.453125 116.67578125 C77.05236321 123.88370876 67.32926666 127.16959932 55.42979431 127.20294189 C53.59028198 127.21150711 53.59028198 127.21150711 51.71360779 127.22024536 C50.36758433 127.2214905 49.02156076 127.22261564 47.67553711 127.22363281 C46.2474861 127.22826604 44.81943631 127.23329137 43.39138794 127.23867798 C39.52115953 127.25175871 35.65094844 127.2582389 31.7807014 127.26268864 C29.35736979 127.26562743 26.93404283 127.26973382 24.51071358 127.27419281 C16.91333252 127.28785871 9.31596219 127.2975288 1.7185697 127.3013947 C-7.02239665 127.30586804 -15.76320605 127.32338603 -24.5041247 127.3523953 C-31.27891829 127.37409091 -38.05366799 127.38410323 -44.82849592 127.38543582 C-48.86591512 127.38647857 -52.90318661 127.39227206 -56.94056892 127.41025543 C-60.7450626 127.42687222 -64.5492997 127.42882656 -68.35381699 127.42011642 C-70.39451228 127.41899278 -72.43519958 127.432606 -74.47584534 127.4468689 C-89.30210704 127.38060534 -101.47005446 124.56251753 -112.60546875 114.4375 C-121.23229115 105.32170791 -124.91674688 93.59576739 -124.66796875 81.28125 C-123.41230939 68.34795856 -117.66320358 58.15753859 -107.8515625 49.8515625 C-101.70850024 45.44855387 -94.65546127 42.84694262 -87.35546875 41.0625 C-87.15244141 39.79019531 -87.15244141 39.79019531 -86.9453125 38.4921875 C-84.09355168 22.95265248 -77.66918741 9.7166353 -64.46289062 0.44238281 C-44.99338052 -12.49138859 -19.59389779 -13.31122778 0 0 Z M-63.35546875 17.0625 C-66.05773361 20.56014848 -68.28629184 24.16045885 -70.35546875 28.0625 C-70.87947266 29.04669922 -70.87947266 29.04669922 -71.4140625 30.05078125 C-73.83187917 35.45327113 -73.75579113 41.04218652 -73.8515625 46.890625 C-74.35546875 50.0625 -74.35546875 50.0625 -76.00390625 52.42578125 C-78.93660074 54.46697558 -80.99821433 54.69083982 -84.54296875 55 C-93.99045215 56.23780018 -99.71313276 59.68612892 -105.84765625 66.90234375 C-109.4932622 72.12519372 -110.88942688 76.46373234 -110.79296875 82.8125 C-110.78467041 83.51624756 -110.77637207 84.21999512 -110.76782227 84.94506836 C-110.51538105 92.77972983 -108.55448496 98.98459909 -103.23046875 104.875 C-94.23777539 112.69728926 -85.8016308 113.79787286 -74.15039062 113.70947266 C-72.63805595 113.71626047 -71.12572955 113.72517011 -69.61341858 113.73602295 C-65.53268206 113.75868504 -61.45258239 113.75003479 -57.37183571 113.73412752 C-53.08572394 113.72140013 -48.79966389 113.73322752 -44.5135498 113.74105835 C-37.31801644 113.75013512 -30.12274033 113.73821904 -22.92724609 113.71435547 C-14.62800272 113.68714786 -6.32937367 113.69596343 1.96985483 113.7234875 C9.11670361 113.74623405 16.26336829 113.74935165 23.4102416 113.73629415 C27.66943514 113.72852999 31.92834064 113.72737379 36.18751526 113.74397659 C40.19335509 113.7585033 44.1984089 113.74825193 48.20416451 113.71950531 C49.6673865 113.71293793 51.13067554 113.71471709 52.59387016 113.72581863 C62.36599658 113.79308197 70.29520331 112.92727288 77.74700165 106.15047646 C83.94644199 99.72213508 86.82855615 93.15769693 87.26953125 84.25 C87.01171307 76.02648893 84.32369715 69.40741972 79.00390625 63.125 C77.30475576 61.53700888 75.61204822 60.29887287 73.64453125 59.0625 C73.05800781 58.66417969 72.47148437 58.26585937 71.8671875 57.85546875 C65.72081521 54.41106606 59.08656105 54.51855746 52.20800781 54.3894043 C51.40588867 54.37176025 50.60376953 54.35411621 49.77734375 54.3359375 C49.05434082 54.32997559 48.33133789 54.32401367 47.58642578 54.31787109 C45.64453125 54.0625 45.64453125 54.0625 42.64453125 52.0625 C41.87109375 49.92578125 41.87109375 49.92578125 41.26953125 47.375 C39.70610909 41.81883819 37.79144814 37.26777361 32.93847656 33.86694336 C27.49624291 30.93011973 23.62306655 30.90411773 17.58203125 31.5 C9.59547483 31.89920685 9.59547483 31.89920685 6.23828125 28.9453125 C4.58203125 26.125 4.58203125 26.125 3.12890625 23.08984375 C-0.99879241 14.67151096 -8.78049525 9.32728349 -17.35546875 6.0625 C-34.20972216 0.42442235 -50.88203893 4.33010623 -63.35546875 17.0625 Z " fill="#215811" transform="translate(183.35546875,24.9375)"/>
<path d="M0 0 C7.50952546 5.39320465 11.36431658 11.29854552 13.8984375 20.16796875 C14.84218006 29.13352307 13.37281409 36.81454267 8.2109375 44.29296875 C2.43691689 50.81201914 -4.12298495 54.3869629 -12.80020332 55.09123611 C-18.99269606 55.38757143 -25.18351208 55.33195138 -31.38110352 55.28759766 C-33.76221858 55.29245904 -36.14332955 55.29990306 -38.52442932 55.3097229 C-44.96195142 55.32846339 -51.39886132 55.30976089 -57.83633542 55.28305864 C-63.89344987 55.26009065 -69.95056367 55.26766116 -76.00770795 55.27146368 C-88.00044026 55.27782762 -99.99293407 55.25459095 -111.9855957 55.21533203 C-123.62076055 55.17725356 -135.25564644 55.16317873 -146.89086914 55.17431641 C-159.57774554 55.18642492 -172.26449967 55.18609684 -184.95136589 55.16334474 C-186.30295972 55.16093021 -187.65455355 55.15851824 -189.00614738 55.15610886 C-189.67110008 55.15490178 -190.33605278 55.1536947 -191.02115555 55.15245105 C-195.70869849 55.14468999 -200.39619588 55.14548071 -205.08374214 55.14928055 C-211.3835121 55.15303733 -217.6829227 55.1369088 -223.9826107 55.10515976 C-226.29859048 55.09665016 -228.61460664 55.09498895 -230.9305954 55.10054016 C-234.0822268 55.10695049 -237.23277288 55.08890823 -240.3842926 55.06436157 C-241.77132089 55.07569954 -241.77132089 55.07569954 -243.18636996 55.08726656 C-249.31659487 55.00229843 -249.31659487 55.00229843 -251.95498562 52.7369442 C-253.309273 49.42292471 -252.67415916 46.95990871 -251.8515625 43.54296875 C-249.15934413 40.85075038 -247.08618067 41.29945882 -243.42766845 41.2772814 C-242.51679635 41.28194462 -241.60592424 41.28660783 -240.66744995 41.29141235 C-239.70358372 41.28844221 -238.73971749 41.28547208 -237.74664319 41.28241193 C-234.49623795 41.27473455 -231.24601144 41.2812813 -227.99560547 41.28759766 C-225.67334368 41.28484946 -223.35108283 41.28117061 -221.02882385 41.27662659 C-216.01693326 41.26849668 -211.00508732 41.26635065 -205.99319077 41.26857376 C-198.73806232 41.27116083 -191.48301599 41.26004366 -184.22790684 41.24402396 C-172.44621572 41.21804022 -160.66452454 41.19803413 -148.8828125 41.18457031 C-148.17726629 41.18375994 -147.47172007 41.18294957 -146.74479367 41.18211465 C-136.74154418 41.1709033 -126.73830025 41.1656146 -116.73504533 41.16272752 C-116.03131826 41.16252353 -115.32759119 41.16231954 -114.60253906 41.16210938 C-113.89966978 41.16190944 -113.1968005 41.1617095 -112.47263215 41.16150351 C-100.74295921 41.15776776 -89.01337078 41.13866064 -77.28374016 41.10701501 C-69.40636776 41.08678262 -61.52925546 41.08444034 -53.65186763 41.09529519 C-48.7468413 41.09790209 -43.84196638 41.08389855 -38.93697929 41.06521416 C-36.66341262 41.05989071 -34.38981809 41.06139152 -32.11626244 41.07024956 C-29.00967187 41.0813759 -25.90410508 41.06793203 -22.7975769 41.04849243 C-21.45134524 41.06217942 -21.45134524 41.06217942 -20.07791698 41.07614291 C-14.19180861 41.00459141 -9.79455751 39.81209049 -4.8515625 36.54296875 C-2.09847015 33.57369825 -0.91087856 30.23771325 -0.76953125 26.19921875 C-1.12921961 22.12727509 -1.79473144 18.11535953 -3.8515625 14.54296875 C-5.49695572 13.21721042 -5.49695572 13.21721042 -7.8515625 12.54296875 C-9.0684375 12.10984375 -10.2853125 11.67671875 -11.5390625 11.23046875 C-16.48165036 10.06642002 -20.416671 11.21574846 -24.8515625 13.54296875 C-28.49469127 16.8907087 -30.04954063 21.02278415 -31.82421875 25.5546875 C-32.8515625 27.54296875 -32.8515625 27.54296875 -35.8515625 29.54296875 C-39.01956328 30.03035348 -40.44019018 29.78113167 -43.2265625 28.16796875 C-45.41754601 24.6286877 -45.18549774 22.32052412 -44.58203125 18.26953125 C-42.31602385 9.81138599 -37.24875472 3.97251271 -29.8515625 -0.45703125 C-28.335625 -1.38515625 -28.335625 -1.38515625 -26.7890625 -2.33203125 C-18.26253036 -5.57837147 -7.75190385 -4.59705926 0 0 Z " fill="#20560F" transform="translate(434.8515625,184.45703125)"/>
<path d="M0 0 C4.11660618 1.25684661 7.64522142 2.78182386 11.34375 4.9765625 C12.33697266 5.56163574 13.33019531 6.14670898 14.35351562 6.74951172 C15.39185547 7.36842285 16.43019531 7.98733398 17.5 8.625 C19.64555999 9.89108832 21.79139236 11.15671519 23.9375 12.421875 C25.49210937 13.34129883 25.49210937 13.34129883 27.078125 14.27929688 C30.86700874 16.51058469 34.67746941 18.70198785 38.5 20.875 C39.5828125 21.49117188 40.665625 22.10734375 41.78125 22.7421875 C42.5134375 23.15726562 43.245625 23.57234375 44 24 C42.72495275 27.45621944 41.1492712 30.60378582 39.3347168 33.80688477 C28.14715028 53.70509538 24.39739723 73.22472634 22 96 C5.17 96 -11.66 96 -29 96 C-29 63.73233801 -20.04192888 26.17240124 0 0 Z " fill="#52D381" transform="translate(108,375)"/>
<path d="M0 0 C17.58155166 30.15524332 28 60.84200107 28 96 C11.5 96 -5 96 -22 96 C-22.99 89.07 -23.98 82.14 -25 75 C-28.77128869 58.65774901 -33.58887424 43.51182794 -42.8125 29.41796875 C-44 27 -44 27 -43.88916016 25.04492188 C-42.59709396 22.07338249 -40.79135301 21.38303371 -37.9609375 19.86328125 C-36.91180176 19.28980957 -35.86266602 18.71633789 -34.78173828 18.12548828 C-33.65751465 17.52720215 -32.53329102 16.92891602 -31.375 16.3125 C-29.08746217 15.06838907 -26.80100037 13.82229759 -24.515625 12.57421875 C-23.39994141 11.96755371 -22.28425781 11.36088867 -21.13476562 10.73583984 C-16.44043009 8.13640638 -11.86412457 5.35734544 -7.32958984 2.48950195 C-4.6215649 0.8110443 -3.26045026 0 0 0 Z " fill="#52D381" transform="translate(440,375)"/>
<path d="M0 0 C7.55889623 4.91635527 11.87359197 10.50501702 14.53515625 19.26953125 C16.29296912 28.27166383 14.29414025 36.42111769 9.7421875 44.2890625 C5.31249554 50.23900377 -1.88593793 54.4035366 -9.17777181 55.59229779 C-15.11599689 56.14468239 -21.07044846 56.03483521 -27.02758789 55.97875977 C-29.02447061 55.98198356 -31.02135055 55.98780752 -33.01821899 55.99601746 C-38.40831493 56.01047907 -43.79765836 55.98770841 -49.18766332 55.95715833 C-54.83566562 55.93070437 -60.48364698 55.93609115 -66.13169861 55.9372406 C-75.60444663 55.93443744 -85.07690502 55.90846668 -94.54956055 55.86743164 C-105.50726323 55.82013953 -116.46464992 55.80444189 -127.42244726 55.8066383 C-137.97094551 55.80846717 -148.51934081 55.79317684 -159.06780815 55.76826286 C-163.55619548 55.75766197 -168.04454639 55.75217284 -172.53294563 55.75058174 C-177.80835843 55.74757495 -183.08350463 55.72931456 -188.3588295 55.69908333 C-190.29746939 55.69030158 -192.23613996 55.68663359 -194.17479897 55.68836594 C-196.81396724 55.68983224 -199.45238233 55.67293124 -202.09144592 55.65113831 C-202.86438447 55.65578411 -203.63732301 55.66042992 -204.43368393 55.66521651 C-209.55633645 55.59499827 -209.55633645 55.59499827 -212.05385494 53.94367886 C-213.80166317 51.0535955 -213.42845254 48.51972367 -213.078125 45.25 C-212.04130077 43.55490875 -212.04130077 43.55490875 -210.078125 42.25 C-207.40554002 41.95616802 -204.96560132 41.84696314 -202.29231262 41.87145996 C-201.49093406 41.86692983 -200.6895555 41.8623997 -199.86389273 41.8577323 C-197.16927084 41.84607299 -194.475142 41.85576956 -191.78051758 41.86523438 C-189.85218993 41.86113077 -187.92386475 41.85567115 -185.99554443 41.84895325 C-181.83760998 41.83720919 -177.67980834 41.83475079 -173.52186012 41.83930969 C-166.94538703 41.84610697 -160.36908927 41.83027149 -153.79264832 41.81091309 C-139.82531671 41.77300731 -125.85800015 41.76025667 -111.890625 41.75 C-96.82980948 41.73893043 -81.76907441 41.72355691 -66.70831412 41.67928743 C-60.17320642 41.66093679 -53.6382983 41.65703724 -47.10317099 41.66422272 C-43.03180206 41.6657464 -38.96053258 41.65494857 -34.88919067 41.64084435 C-33.00424767 41.6368471 -31.11928568 41.63795747 -29.2343502 41.64461708 C-26.65560984 41.65302625 -24.07755498 41.64297671 -21.49885559 41.62854004 C-20.38710401 41.63888094 -20.38710401 41.63888094 -19.25289279 41.64943075 C-13.46016265 41.58651254 -7.57502297 40.59604372 -3.203125 36.48828125 C-0.25055918 31.43406268 0.75875569 28.10816481 -0.078125 22.25 C-1.45985299 18.57519151 -3.30917542 15.87347263 -6.390625 13.375 C-11.25236077 11.33985479 -15.23402283 10.72897401 -20.265625 12.375 C-23.99241217 13.97938907 -25.95572347 15.71266411 -28.078125 19.25 C-28.5997559 20.61694045 -29.09874967 21.99267432 -29.578125 23.375 C-30.47843554 25.92186778 -31.07601502 27.24759899 -32.890625 29.3125 C-36.02753802 30.6568913 -37.85958499 30.27719362 -41.078125 29.25 C-43.015625 27.75 -43.015625 27.75 -44.078125 25.25 C-44.7092468 17.88691232 -41.54777712 11.8929358 -37.078125 6.25 C-27.25258484 -3.25971923 -12.56732688 -6.80336493 0 0 Z " fill="#20560F" transform="translate(339.078125,134.75)"/>
<path d="M0 0 C3.5099517 1.44133559 4.72388369 5.25669691 6.3828125 8.48632812 C7.25055641 10.11832201 8.12182668 11.74844441 8.99609375 13.37695312 C9.46354004 14.24900391 9.93098633 15.12105469 10.41259766 16.01953125 C13.70531861 21.99027597 17.28217458 27.80191613 20.82983398 33.6237793 C21.36552002 34.51556885 21.90120605 35.4073584 22.453125 36.32617188 C22.93410645 37.11757568 23.41508789 37.90897949 23.91064453 38.72436523 C24.9453125 40.79882812 24.9453125 40.79882812 24.9453125 43.79882812 C22.86663033 45.31004524 20.8368268 46.62056513 18.6328125 47.92382812 C5.0842602 56.31241077 -7.31193976 67.12151781 -17.0546875 79.79882812 C-20.74026844 78.4075547 -24.11817166 76.74527475 -27.5546875 74.82226562 C-29.12488647 73.94513916 -29.12488647 73.94513916 -30.72680664 73.05029297 C-36.17592759 69.9777419 -41.61952629 66.8960087 -47.0546875 63.79882812 C-48.2614917 63.11820312 -48.2614917 63.11820312 -49.49267578 62.42382812 C-51.37751753 61.35655568 -53.24975902 60.27118865 -55.1171875 59.17382812 C-56.09816406 58.6040625 -57.07914062 58.03429687 -58.08984375 57.44726562 C-59.06244141 56.63128906 -59.06244141 56.63128906 -60.0546875 55.79882812 C-60.0546875 49.28245489 -55.20689411 45.51323484 -51.0546875 40.79882812 C-50.61624512 40.29722168 -50.17780273 39.79561523 -49.72607422 39.27880859 C-37.58336432 25.46185634 -23.78697859 13.79246908 -8.4921875 3.61132812 C-7.61663208 3.01276001 -7.61663208 3.01276001 -6.72338867 2.40209961 C-2.62014347 -0.25653496 -2.62014347 -0.25653496 0 0 Z " fill="#52D280" transform="translate(177.0546875,309.201171875)"/>
<path d="M0 0 C12.39909297 0 12.39909297 0 17.26953125 0.734375 C18.33526367 0.89389648 19.40099609 1.05341797 20.49902344 1.21777344 C21.5924707 1.3934082 22.68591797 1.56904297 23.8125 1.75 C24.96395508 1.93336914 26.11541016 2.11673828 27.30175781 2.30566406 C35.4530872 3.64999929 43.18572025 5.27506339 51 8 C51.86173828 8.29986816 52.72347656 8.59973633 53.61132812 8.90869141 C72.50561328 15.5255031 72.50561328 15.5255031 79 19 C74.69749268 26.92494408 70.3378321 34.81648343 65.9375 42.6875 C65.33873047 43.76322266 64.73996094 44.83894531 64.12304688 45.94726562 C60.88937935 51.73103241 57.57076028 57.41773393 54 63 C48.23073706 61.31600302 42.54688177 59.4908726 36.875 57.5 C24.72323326 53.35555912 12.85767297 51.98905177 0 51 C0 34.17 0 17.34 0 0 Z " fill="#52D281" transform="translate(280,283)"/>
<path d="M0 0 C0 16.83 0 33.66 0 51 C-6.6 51.66 -13.2 52.32 -20 53 C-24.02238277 53.85271591 -27.78221148 54.70790228 -31.6875 55.875 C-32.57115234 56.11863281 -33.45480469 56.36226563 -34.36523438 56.61328125 C-39.50860014 58.07847622 -44.28788502 59.9010152 -49.10083008 62.23486328 C-51 63 -51 63 -54 63 C-54.55945313 61.9790625 -55.11890625 60.958125 -55.6953125 59.90625 C-56.50460407 58.43716696 -57.31455948 56.96844952 -58.125 55.5 C-58.5578833 54.71423584 -58.9907666 53.92847168 -59.43676758 53.11889648 C-62.15414501 48.2208083 -64.9471281 43.37723646 -67.81640625 38.56640625 C-68.45755371 37.48746094 -69.09870117 36.40851563 -69.75927734 35.296875 C-71.03617875 33.15501758 -72.32156567 31.01819432 -73.61572266 28.88671875 C-74.20015137 27.90445312 -74.78458008 26.9221875 -75.38671875 25.91015625 C-75.91483154 25.03496338 -76.44294434 24.15977051 -76.98706055 23.25805664 C-78 21 -78 21 -77 18 C-75.19335938 16.97265625 -75.19335938 16.97265625 -72.84375 16.0625 C-71.98523438 15.72476562 -71.12671875 15.38703125 -70.2421875 15.0390625 C-69.33726562 14.69617188 -68.43234375 14.35328125 -67.5 14 C-66.62601563 13.65710938 -65.75203125 13.31421875 -64.8515625 12.9609375 C-43.80604603 4.78003941 -22.61900637 0 0 0 Z " fill="#52D281" transform="translate(267,283)"/>
<path d="M0 0 C4.84429371 0.79401931 8.19627402 2.80963333 12.1875 5.5625 C12.85241455 6.0150415 13.5173291 6.46758301 14.20239258 6.93383789 C24.20255994 13.81008809 33.19402999 21.67712079 42 30 C42.85722656 30.80308594 43.71445312 31.60617187 44.59765625 32.43359375 C51.4722911 39.06854244 57.24265869 46.40381203 63 54 C60.12492108 57.11618188 57.31330882 59.1454438 53.59765625 61.171875 C52.54795654 61.7505835 51.49825684 62.32929199 50.41674805 62.92553711 C49.30984619 63.52760986 48.20294434 64.12968262 47.0625 64.75 C38.97057576 69.19415823 31.02001541 73.69138275 23.35546875 78.83984375 C21 80 21 80 18.95703125 80.01953125 C16.04343538 78.50166993 14.51168293 76.32660759 12.5 73.75 C11.7471875 72.79609375 10.994375 71.8421875 10.21875 70.859375 C9.4865625 69.91578125 8.754375 68.9721875 8 68 C6.66889156 66.33155585 5.33629418 64.66429367 4 63 C4.49371094 62.33613281 4.98742187 61.67226563 5.49609375 60.98828125 C6.13675781 60.10527344 6.77742188 59.22226562 7.4375 58.3125 C8.39462891 57.00732422 8.39462891 57.00732422 9.37109375 55.67578125 C11.01004847 52.98349353 11.746462 51.12696868 12 48 C10.66846734 45.69495956 10.66846734 45.69495956 9 44 C2.63516893 44.13836589 -0.74661813 46.67998232 -5.66796875 50.6015625 C-8 52 -8 52 -9.9453125 51.92578125 C-12.69022058 50.68900708 -15.1540672 49.18944416 -17.6875 47.5625 C-18.66074219 46.94503906 -19.63398438 46.32757813 -20.63671875 45.69140625 C-23 44 -23 44 -24 42 C-22.77172852 39.42480469 -22.77172852 39.42480469 -20.87890625 36.171875 C-20.37253883 35.2936911 -20.37253883 35.2936911 -19.85594177 34.39776611 C-18.76561332 32.51072346 -17.66434329 30.63033787 -16.5625 28.75 C-15.85407342 27.52907739 -15.14638315 26.30772724 -14.43945312 25.0859375 C-13.02194795 22.63788661 -11.60044579 20.19222211 -10.17626953 17.74804688 C-6.74674703 11.85353685 -3.37516951 5.9257399 0 0 Z " fill="#52D280" transform="translate(369,309)"/>
<path d="M0 0 C7.64761331 4.04454782 13.96732313 9.81768864 16.69921875 18.19921875 C18.33244587 26.78489894 18.18468593 35.67263745 13.66796875 43.2890625 C8.45091488 50.55331472 2.54770603 55.01226317 -6.28746033 56.97283936 C-11.39014974 57.63374325 -16.44388867 57.59341856 -21.58422852 57.59863281 C-23.34376862 57.60608017 -23.34376862 57.60608017 -25.13885498 57.61367798 C-29.01054474 57.6282574 -32.88219358 57.63509292 -36.75390625 57.640625 C-38.09046897 57.64336239 -39.42703146 57.64621891 -40.76359367 57.64919281 C-47.03893269 57.66284498 -53.31425876 57.67252489 -59.58961159 57.6763947 C-66.82401825 57.68088132 -74.05823653 57.69846655 -81.29258591 57.7273953 C-86.89359185 57.74901327 -92.49454475 57.7590989 -98.09559196 57.76043582 C-101.43751855 57.76148304 -104.77912632 57.76882232 -108.12103462 57.78525543 C-111.84589156 57.80227135 -115.5702862 57.80044681 -119.29516602 57.79394531 C-120.39920273 57.8031601 -121.50323944 57.81237488 -122.64073181 57.8218689 C-128.39820382 57.79031939 -132.58646149 57.72603851 -136.875 53.4375 C-137.34416071 47.10383045 -137.34416071 47.10383045 -135.67599201 44.73459625 C-133.27491681 43.00531282 -131.75676799 43.06126477 -128.80912781 43.05895996 C-127.76190552 43.05075729 -126.71468323 43.04255463 -125.63572693 43.03410339 C-124.48709671 43.04025162 -123.33846649 43.04639984 -122.1550293 43.05273438 C-120.94503265 43.0473616 -119.73503601 43.04198883 -118.4883728 43.03645325 C-115.85592802 43.0266549 -113.22410911 43.02224556 -110.59171104 43.02680969 C-106.42690197 43.03361661 -102.26236889 43.01775524 -98.09761047 42.99841309 C-89.25258856 42.96053519 -80.40759057 42.94776057 -71.5625 42.9375 C-62.02380841 42.92642539 -52.48524386 42.91102712 -42.94663936 42.86678743 C-38.80941738 42.84845553 -34.67251055 42.84453026 -30.5352577 42.85172272 C-27.35118129 42.85360614 -24.16719408 42.83634262 -20.9831543 42.82226562 C-19.26931801 42.83148796 -19.26931801 42.83148796 -17.52085876 42.84089661 C-11.81919734 42.79659459 -7.8490297 42.53745132 -2.875 39.4375 C-2.215 39.4375 -1.555 39.4375 -0.875 39.4375 C1.6345286 34.69609276 3.65551292 29.64879629 2.7578125 24.21484375 C1.23694019 19.64368258 -0.74196804 17.08687946 -4.875 14.4375 C-8.59475195 12.57762403 -12.8153663 13.00655427 -16.875 13.4375 C-22.73598263 16.04238117 -24.40956663 19.89027491 -26.875 25.4375 C-29.575 30.1375 -29.575 30.1375 -30.875 31.4375 C-34.39871092 31.82902344 -36.25116451 31.84791808 -39.25 29.875 C-41.52123596 26.46814606 -41.3470888 24.48397545 -40.875 20.4375 C-39.38531276 13.35063838 -35.16933883 8.22313011 -29.875 3.4375 C-21.18961173 -2.18791162 -9.76862447 -3.99625547 0 0 Z " fill="#20560F" transform="translate(435.875,53.5625)"/>
<path d="M0 0 C5.41294905 2.66808482 8.59714601 7.19429202 11.25 12.5 C11.94250066 19.48436379 12.3104653 25.99324957 7.9140625 31.77734375 C2.88525049 36.98322661 -1.49185661 39.8477856 -8.875 40.125 C-15.76930825 39.74830971 -19.23900748 37.61151643 -24.5 33.1875 C-28.70339893 28.1667735 -30.3578889 23.23702796 -30.09375 16.765625 C-29.08917962 10.14459294 -25.60989426 5.85873215 -20.53125 1.7265625 C-14.10566803 -2.6980707 -7.24721854 -2.77135599 0 0 Z " fill="#52D280" transform="translate(282.75,443.5)"/>
<path d="M0 0 C-1.61026458 4.90701927 -4.43863267 8.67946076 -7.4375 12.8125 C-8.52949529 14.33793393 -9.62062187 15.86399006 -10.7109375 17.390625 C-11.26233398 18.16083984 -11.81373047 18.93105469 -12.38183594 19.72460938 C-14.81382657 23.14436687 -17.19175745 26.6001152 -19.5625 30.0625 C-20.00803223 30.7119458 -20.45356445 31.3613916 -20.91259766 32.03051758 C-22.76127903 34.72681702 -24.60722215 37.42497428 -26.45117188 40.12451172 C-36.68475171 55.10454276 -36.68475171 55.10454276 -42 62 C-44.21570661 59.91311354 -45.83495232 57.78818244 -47.5 55.25 C-51.3017621 50.03946312 -56.47115689 47.14809572 -62 44 C-58.51177815 40.19792785 -54.52985462 37.41867868 -50.3125 34.5 C-48.77599402 33.4258494 -47.23953703 32.35162872 -45.703125 31.27734375 C-44.92001953 30.73190918 -44.13691406 30.18647461 -43.33007812 29.62451172 C-39.73222182 27.11611526 -36.1463433 24.59086236 -32.5625 22.0625 C-31.53020264 21.3346228 -31.53020264 21.3346228 -30.47705078 20.59204102 C-17.00591188 11.20144446 -17.00591188 11.20144446 -3.8918457 1.33032227 C-2 0 -2 0 0 0 Z " fill="#51D17F" transform="translate(347,387)"/>
<path d="M0 0 C0.97118271 -0.0127597 1.94236542 -0.02551941 2.94297791 -0.03866577 C3.99505936 -0.04089142 5.04714081 -0.04311707 6.13110352 -0.04541016 C7.74759544 -0.05539536 7.74759544 -0.05539536 9.39674377 -0.06558228 C11.67902923 -0.07572095 13.96134439 -0.08039892 16.24365234 -0.08007812 C19.74243832 -0.0844507 23.23996285 -0.12075726 26.73852539 -0.15869141 C28.95271377 -0.1645593 31.16690816 -0.16852888 33.38110352 -0.17041016 C34.43116074 -0.18478119 35.48121796 -0.19915222 36.56309509 -0.21395874 C38.0245974 -0.20472885 38.0245974 -0.20472885 39.515625 -0.1953125 C40.37341049 -0.19816254 41.23119598 -0.20101257 42.11497498 -0.20394897 C44.32250977 0.29052734 44.32250977 0.29052734 46.13465881 2.09432983 C47.91676116 5.38922868 47.17706716 7.74082741 46.32250977 11.29052734 C43.83766103 13.77537608 43.07261713 13.55056352 39.64501953 13.58105469 C38.67383682 13.59381439 37.70265411 13.6065741 36.70204163 13.61972046 C35.64996017 13.62194611 34.59787872 13.62417175 33.51391602 13.62646484 C31.89742409 13.63645004 31.89742409 13.63645004 30.24827576 13.64663696 C27.96599031 13.65677564 25.68367514 13.66145361 23.40136719 13.66113281 C19.90258121 13.66550538 16.40505668 13.70181195 12.90649414 13.73974609 C10.69230576 13.74561399 8.47811137 13.74958356 6.26391602 13.75146484 C5.2138588 13.76583588 4.16380157 13.78020691 3.08192444 13.79501343 C1.62042213 13.78578354 1.62042213 13.78578354 0.12939453 13.77636719 C-0.72839096 13.77921722 -1.58617645 13.78206726 -2.46995544 13.78500366 C-4.67749023 13.29052734 -4.67749023 13.29052734 -6.48963928 11.48672485 C-8.27174162 8.19182601 -7.53204763 5.84022728 -6.67749023 2.29052734 C-4.1926415 -0.19432139 -3.42759759 0.03049116 0 0 Z " fill="#21560F" transform="translate(67.677490234375,176.70947265625)"/>
<path d="M0 0 C0.87648193 -0.00428513 1.75296387 -0.00857025 2.65600586 -0.01298523 C4.50861751 -0.01872671 6.36125171 -0.01923013 8.21386719 -0.01489258 C11.05182202 -0.01173065 13.88873644 -0.03520035 16.7265625 -0.06054688 C18.52604035 -0.06281965 20.32552101 -0.06352347 22.125 -0.0625 C22.97505615 -0.07170975 23.8251123 -0.08091949 24.70092773 -0.09040833 C30.60689119 -0.04389668 30.60689119 -0.04389668 32.78686523 1.6053009 C34.90177834 4.41628858 34.42465728 6.92064667 34.0625 10.30078125 C32.54766633 12.32091745 31.65860327 13.1789648 29.16540527 13.6884613 C28.45275513 13.69386429 27.74010498 13.69926727 27.00585938 13.70483398 C25.78944763 13.72386024 25.78944763 13.72386024 24.54846191 13.74327087 C23.67653198 13.74033524 22.80460205 13.7373996 21.90625 13.734375 C21.00757202 13.73961685 20.10889404 13.7448587 19.1829834 13.7502594 C17.28329502 13.75668172 15.38356688 13.75533987 13.48388672 13.74682617 C10.5731754 13.73831248 7.66442376 13.76707971 4.75390625 13.79882812 C2.90885476 13.80044009 1.06379978 13.79986269 -0.78125 13.796875 C-2.0891449 13.81372597 -2.0891449 13.81372597 -3.42346191 13.83091736 C-9.40616331 13.76170959 -9.40616331 13.76170959 -12.01757812 11.49633789 C-13.41942128 8.15059067 -12.83140667 5.74870697 -11.9375 2.30078125 C-7.99249701 -0.32922074 -4.57943985 -0.00490995 0 0 Z " fill="#21570F" transform="translate(130.9375,225.69921875)"/>
<path d="M0 0 C1.5778125 -0.02900391 1.5778125 -0.02900391 3.1875 -0.05859375 C6 0.4375 6 0.4375 7.88671875 2.23828125 C9.55905828 5.5418853 8.84631015 7.92205782 8 11.4375 C5.30898766 14.12851234 3.80924054 13.73637549 0.0625 13.75 C-0.99839844 13.76675781 -2.05929688 13.78351563 -3.15234375 13.80078125 C-6 13.4375 -6 13.4375 -7.85546875 12.13671875 C-9.77908714 9.28083479 -9.3558825 6.75907001 -9 3.4375 C-6.60398294 -0.09132784 -4.07200603 0.0049902 0 0 Z " fill="#20570F" transform="translate(39,176.5625)"/>
<path d="M0 0 C0.7734375 -0.01675781 1.546875 -0.03351563 2.34375 -0.05078125 C5.0364981 0.40288827 5.90076454 1.12486658 7.5 3.3125 C8.15236998 9.40128645 8.15236998 9.40128645 6.2890625 12.00390625 C3.9339042 13.7265657 2.39785884 13.74568771 -0.5 13.75 C-1.799375 13.77900391 -1.799375 13.77900391 -3.125 13.80859375 C-5.5 13.3125 -5.5 13.3125 -7.3203125 11.51171875 C-9.10359751 8.18725033 -8.42364769 5.8751411 -7.5 2.3125 C-4.40219052 0.24729368 -3.5459519 0.01772976 0 0 Z " fill="#215710" transform="translate(96.5,225.6875)"/>
</svg>
